<?xml version="1.0" encoding="UTF-8" standalone="no"?>
<svg
   id="be3e1a43-0c7b-454d-900a-5620992e061d"
   data-name="Layer 1"
   width="997.86122"
   height="450.8081"
   viewBox="0 0 997.86122 450.8081"
   version="1.1"
   sodipodi:docname="open-source-image.svg"
   inkscape:version="1.1.1 (3bf5ae0d25, 2021-09-20)"
   xmlns:inkscape="http://www.inkscape.org/namespaces/inkscape"
   xmlns:sodipodi="http://sodipodi.sourceforge.net/DTD/sodipodi-0.dtd"
   xmlns="http://www.w3.org/2000/svg"
   xmlns:svg="http://www.w3.org/2000/svg">
  <defs
     id="defs357" />
  <sodipodi:namedview
     id="namedview355"
     pagecolor="#ffffff"
     bordercolor="#666666"
     borderopacity="1.0"
     inkscape:pageshadow="2"
     inkscape:pageopacity="0.0"
     inkscape:pagecheckerboard="0"
     showgrid="false"
     inkscape:zoom="1.1264092"
     inkscape:cx="517.57392"
     inkscape:cy="341.35021"
     inkscape:window-width="1920"
     inkscape:window-height="1016"
     inkscape:window-x="0"
     inkscape:window-y="27"
     inkscape:window-maximized="1"
     inkscape:current-layer="be3e1a43-0c7b-454d-900a-5620992e061d" />
  <rect
     x="871.99152"
     y="181.55804"
     width="30.15944"
     height="104.39806"
     fill="#f2f2f2"
     id="rect222" />
  <polygon
     points="922.068 266.317 848.715 179.052 701.475 180.398 612.156 267.396 613.961 268.556 613.316 268.556 613.316 449.513 921.871 449.513 921.871 268.556 922.068 266.317"
     fill="#f2f2f2"
     id="polygon224" />
  <polygon
     points="848.792 179.238 757.154 286.674 757.154 449.513 921.871 449.513 921.871 266.236 848.792 179.238"
     fill="#e6e6e6"
     id="polygon226" />
  <rect
     x="823.27242"
     y="359.46083"
     width="33.6394"
     height="29.73333"
     fill="#3f3d56"
     id="rect228" />
  <rect
     x="823.27242"
     y="307.99568"
     width="33.6394"
     height="29.26181"
     fill="#3f3d56"
     id="rect230" />
  <rect
     x="823.27242"
     y="359.46083"
     width="33.6394"
     height="29.73333"
     fill="#fff"
     id="rect232" />
  <rect
     x="823.27242"
     y="307.99568"
     width="33.6394"
     height="29.26181"
     fill="#fff"
     id="rect234" />
  <rect
     x="673.77661"
     y="351.57128"
     width="33.6394"
     height="29.73333"
     fill="#fff"
     id="rect236" />
  <rect
     x="673.77661"
     y="300.10613"
     width="33.6394"
     height="29.26181"
     fill="#fff"
     id="rect238" />
  <rect
     x="633.99152"
     y="181.55804"
     width="30.15944"
     height="104.39806"
     fill="#f2f2f2"
     id="rect240" />
  <polygon
     points="684.068 266.317 610.715 179.052 463.475 180.398 374.156 267.396 375.961 268.556 375.316 268.556 375.316 449.513 683.871 449.513 683.871 268.556 684.068 266.317"
     fill="#f2f2f2"
     id="polygon242" />
  <polygon
     points="610.792 179.238 519.154 286.674 519.154 449.513 683.871 449.513 683.871 266.236 610.792 179.238"
     fill="#e6e6e6"
     id="polygon244" />
  <rect
     x="585.27242"
     y="359.46083"
     width="33.6394"
     height="29.73333"
     fill="#3f3d56"
     id="rect246" />
  <rect
     x="585.27242"
     y="307.99568"
     width="33.6394"
     height="29.26181"
     fill="#3f3d56"
     id="rect248" />
  <rect
     x="585.27242"
     y="359.46083"
     width="33.6394"
     height="29.73333"
     fill="#fff"
     id="rect250" />
  <rect
     x="585.27242"
     y="307.99568"
     width="33.6394"
     height="29.26181"
     fill="#fff"
     id="rect252" />
  <rect
     x="435.77661"
     y="351.57128"
     width="33.6394"
     height="29.73333"
     fill="#fff"
     id="rect254" />
  <rect
     x="435.77661"
     y="300.10613"
     width="33.6394"
     height="29.26181"
     fill="#fff"
     id="rect256" />
  <rect
     x="380.1536"
     y="91.46021"
     width="40.30032"
     height="139.50112"
     fill="#f2f2f2"
     id="rect258" />
  <polygon
     points="447.068 204.718 349.051 88.112 152.302 89.91 32.951 206.161 35.362 207.711 34.501 207.711 34.501 449.513 446.804 449.513 446.804 207.711 447.068 204.718"
     fill="#f2f2f2"
     id="polygon260" />
  <polygon
     points="349.153 88.36 226.702 231.921 226.702 449.513 446.804 449.513 446.804 204.611 349.153 88.36"
     fill="#e6e6e6"
     id="polygon262" />
  <rect
     x="315.05306"
     y="329.18147"
     width="44.95039"
     height="39.73094"
     fill="#3f3d56"
     id="rect264" />
  <rect
     x="315.05306"
     y="260.41156"
     width="44.95039"
     height="39.10088"
     fill="#3f3d56"
     id="rect266" />
  <rect
     x="315.05306"
     y="329.18147"
     width="44.95039"
     height="39.73094"
     fill="#fff"
     id="rect268" />
  <rect
     x="315.05306"
     y="260.41156"
     width="44.95039"
     height="39.10088"
     fill="#fff"
     id="rect270" />
  <rect
     x="115.29041"
     y="318.63912"
     width="44.95039"
     height="39.73094"
     fill="#fff"
     id="rect272" />
  <rect
     x="115.29041"
     y="249.8692"
     width="44.95039"
     height="39.10088"
     fill="#fff"
     id="rect274" />
  <rect
     y="448.61997"
     width="963.95079"
     height="2"
     fill="#3f3d56"
     id="rect276" />
  <ellipse
     cx="871.02934"
     cy="352.47204"
     rx="29.09932"
     ry="59.37437"
     fill="#3f3d56"
     id="ellipse302"
     style="fill:#e6e6e6;fill-opacity:1" />
  <path
     d="M690.67376,326.06186l9.20569-7.3628c-7.15149-.789-10.0899,3.11127-11.29248,6.19837-5.587-2.32-11.66919.72046-11.66919.72046l18.41889,6.6867A13.93792,13.93792,0,0,0,690.67376,326.06186Z"
     transform="translate(-101.06939 -224.59595)"
     fill="#3f3d56"
     id="path326" />
  <path
     d="M465.67376,261.06186l9.20569-7.3628c-7.15149-.789-10.0899,3.11127-11.29248,6.19837-5.587-2.32-11.66919.72046-11.66919.72046l18.41889,6.6867A13.93792,13.93792,0,0,0,465.67376,261.06186Z"
     transform="translate(-101.06939 -224.59595)"
     fill="#3f3d56"
     id="path328" />
  <path
     d="M832.67376,232.06186l9.20569-7.3628c-7.15149-.789-10.0899,3.11127-11.29248,6.19837-5.587-2.32-11.66919.72046-11.66919.72046l18.41889,6.6867A13.93792,13.93792,0,0,0,832.67376,232.06186Z"
     transform="translate(-101.06939 -224.59595)"
     fill="#3f3d56"
     id="path330" />
  <path
     d="M851.26034,661.648a13.91772,13.91772,0,0,0-6.96955,1.86975A14.98175,14.98175,0,0,0,819.26034,674.648h45.94952A13.99045,13.99045,0,0,0,851.26034,661.648Z"
     transform="translate(-101.06939 -224.59595)"
     fill="#3f3d56"
     id="path332" />
  <path
     d="M384.26034,661.648a13.91772,13.91772,0,0,0-6.96955,1.86975A14.98175,14.98175,0,0,0,352.26034,674.648h45.94952A13.99045,13.99045,0,0,0,384.26034,661.648Z"
     transform="translate(-101.06939 -224.59595)"
     fill="#3f3d56"
     id="path334" />
  <path
     d="M623.26034,661.648a13.91772,13.91772,0,0,0-6.96955,1.86975A14.98175,14.98175,0,0,0,591.26034,674.648h45.94952A13.99045,13.99045,0,0,0,623.26034,661.648Z"
     transform="translate(-101.06939 -224.59595)"
     fill="#3f3d56"
     id="path336" />
  <polygon
     points="471.759 404.228 339.191 404.228 339.191 408.504 359.866 408.504 359.866 449.13 364.142 449.13 364.142 408.504 444.669 408.504 444.669 449.13 448.946 449.13 448.946 408.504 471.759 408.504 471.759 404.228"
     fill="#3f3d56"
     id="polygon338" />
  <rect
     x="339.45191"
     y="391.43404"
     width="132.56808"
     height="4.27639"
     fill="#3f3d56"
     id="rect340" />
  <rect
     x="339.45191"
     y="380.74306"
     width="132.56808"
     height="4.27639"
     fill="#3f3d56"
     id="rect342" />
  <rect
     x="339.45191"
     y="370.05209"
     width="132.56808"
     height="4.27639"
     fill="#3f3d56"
     id="rect344" />
  <polygon
     points="678.759 404.228 546.191 404.228 546.191 408.504 566.866 408.504 566.866 449.13 571.142 449.13 571.142 408.504 651.669 408.504 651.669 449.13 655.946 449.13 655.946 408.504 678.759 408.504 678.759 404.228"
     fill="#3f3d56"
     id="polygon346" />
  <rect
     x="546.45191"
     y="391.43404"
     width="132.56808"
     height="4.27639"
     fill="#3f3d56"
     id="rect348" />
  <rect
     x="546.45191"
     y="380.74306"
     width="132.56808"
     height="4.27639"
     fill="#3f3d56"
     id="rect350" />
  <rect
     x="546.45191"
     y="370.05209"
     width="132.56808"
     height="4.27639"
     fill="#3f3d56"
     id="rect352" />
</svg>
